<?xml version="1.0" encoding="utf-8"?>
<svg viewBox="0 0 88.414 87.574" xmlns="http://www.w3.org/2000/svg">
  <g transform="matrix(1, 0, 0, 1, 2.689782, 0.912326)">
    <path d="M 76.076 28.294 L 55.976 28.294 L 55.976 8.094 C 55.976 4.294 52.576 1.294 48.776 1.294 L 35.176 1.294 C 31.376 1.294 27.976 4.394 27.976 8.094 L 27.976 28.294 L 7.776 28.294 C 3.976 28.294 0.976 31.494 0.976 35.194 L 0.976 48.894 C 0.976 52.694 3.976 56.194 7.776 56.294 L 27.976 56.294 L 27.976 76.394 C 27.976 80.194 31.376 83.194 35.176 83.194 L 48.876 83.194 C 52.676 83.194 56.076 80.094 56.076 76.394 L 56.076 56.194 L 76.176 56.194 C 79.976 56.194 83.076 52.694 83.076 48.894 L 83.076 35.194 C 82.976 31.494 79.876 28.294 76.076 28.294 Z M 20.976 49.394 C 20.976 49.994 20.576 50.394 20.176 50.594 C 19.976 50.694 19.676 50.794 19.476 50.694 C 19.176 50.694 18.876 50.594 18.676 50.494 L 8.976 43.594 C 8.576 43.294 8.376 42.894 8.376 42.494 C 8.376 42.094 8.576 41.594 8.976 41.394 L 18.776 34.594 C 19.176 34.294 19.876 34.294 20.276 34.494 C 20.776 34.694 21.076 35.194 21.076 35.694 L 20.976 49.394 Z M 33.676 20.794 C 33.476 20.294 33.476 19.894 33.776 19.494 L 40.676 9.794 C 40.976 9.394 41.376 9.194 41.776 9.194 C 42.176 9.194 42.676 9.394 42.876 9.794 L 49.676 19.594 C 49.976 19.994 49.976 20.294 49.776 20.794 C 49.576 21.394 49.076 21.394 48.576 21.394 L 34.876 21.394 C 34.376 21.194 33.876 21.294 33.676 20.794 Z M 47.276 47.594 C 44.376 50.494 39.576 50.494 36.676 47.594 C 33.776 44.694 33.776 39.894 36.676 36.994 C 39.576 34.094 44.376 34.094 47.276 36.994 C 50.276 39.894 50.276 44.694 47.276 47.594 Z M 50.176 64.894 L 43.276 74.594 C 42.976 74.994 42.576 75.194 42.176 75.194 C 41.776 75.194 41.276 74.994 41.076 74.594 L 34.276 64.794 C 33.976 64.394 33.976 64.094 34.176 63.594 C 34.376 63.094 34.776 63.094 35.376 63.094 L 49.076 63.094 C 49.676 63.094 50.076 63.094 50.276 63.594 C 50.476 64.194 50.476 64.494 50.176 64.894 Z M 72.976 43.094 L 63.176 49.894 C 62.976 50.094 62.676 50.294 62.376 50.194 C 62.276 50.194 61.876 50.094 61.676 50.094 C 61.176 49.894 60.876 49.394 60.876 48.894 L 60.876 35.094 C 60.876 34.494 61.276 34.094 61.676 33.894 C 62.176 33.694 62.676 33.794 63.076 33.994 L 72.776 40.894 C 73.176 41.194 73.376 41.594 73.376 41.994 C 73.576 42.494 73.376 42.794 72.976 43.094 Z"/>
  </g>
</svg>